<?xml version="1.0" encoding="UTF-8"?>
<svg
   width="2048"
   height="2048"
   viewBox="0 0 100 100"
   xmlns="http://www.w3.org/2000/svg"
   xmlns:svg="http://www.w3.org/2000/svg">
  <circle
     id="background"
     fill="#1a110f"
     cx="50"
     cy="50"
     r="40" />
  <g transform="translate(50,50) scale(1.04) translate(-50,-50)">
  <g transform="translate(-3820.9929,1171.0699)">
    <g transform="matrix(0.32502724,0,0,0.32502724,3698.5035,-1334.4463)">
      <g id="blade-top" transform="translate(484.24529,648.14371)">
        <path
           id="blade-top-outline"
           fill="#3e2c28"
           stroke="#3e2c28"
           stroke-width="10.5833"
           d="m 38.492488,-131.46343 c -23.82213,7.491 -37.0611293,32.875314 -29.5701318,56.697441 4.6447148,14.77066 14.6492538,23.868648 30.4945988,30.069781 11.992058,7.114176 10.233582,21.405881 -3.365242,31.342334 -6.484455,5.7205414 -4.818544,17.116767 2.385649,18.7516072 10.566383,2.39782 34.698033,-10.3382759 36.754259,-9.8903663 C 129.98978,-59.179707 100.05797,-150.82303 38.492488,-131.46343 Z" />
        <path
           id="blade-top-fill"
           fill="#ffd2c0"
           d="m 207.59375,-577 c -19.54754,-0.0542 -40.31046,3.10905 -62.125,9.96875 -90.036395,28.31244 -140.0624309,124.24487 -111.75,214.28125 17.108264,54.406 53.478929,88.45312 110.75,111.84375 31.96542,9.98186 62.98772,12.72252 57.3125,14.46875 -4.5204,1.39089 -19.54241,2.34572 -35.3125,1.8125 24.65044,28.94183 13.13082,72.32513 -30.21875,104 -24.50818,21.620943 -18.1972,64.696077 9.03125,70.875 39.93593,9.062627 131.13469,-39.067887 138.90625,-37.375 C 471.88198,-274.43899 396.5533,-576.47586 207.59375,-577 Z"
           transform="matrix(0.26458334,0,0,0.26458334,-6.3049604e-6,18.562493)" />
        <path
           id="blade-top-shadow"
           fill="#feb7a8"
           d="m 201.09375,-227.625 c 1.45734,0.46901 1.80561,0.84346 0.6875,1.1875 -4.5204,1.39089 -19.54241,2.34572 -35.3125,1.8125 24.65044,28.94183 13.13082,72.32513 -30.21875,104 -24.50818,21.620943 -18.1972,64.696077 9.03125,70.875 7.29506,1.655463 16.29233,1.415333 26.1875,-0.09375 23.9425,-20.636732 49.87476,-59.08798 56.125,-92.125 8.21252,-43.40903 -8.1875,-85.65625 -8.1875,-85.65625 0,0 -6.4103,0.79225 -18.3125,0 z"
           transform="matrix(0.26458334,0,0,0.26458334,-6.3049604e-6,18.562493)" />
        <path
           id="blade-top-highlight"
           fill="#ffe9d5"
           d="m 207.59375,-577 c -19.54754,-0.0542 -40.31046,3.10905 -62.125,9.96875 -90.036395,28.31244 -140.062431,124.24487 -111.75,214.28125 3.170361,10.08207 6.996258,19.47321 11.5,28.21875 -32.021636,-104.7964 50.337455,-254.89792 211.71875,-219.84375 128.42467,27.89555 134.04727,190.31617 129.15625,269.125 30.43632,-153.15274 -46.16973,-301.38294 -178.5,-301.75 z"
           transform="matrix(0.26458334,0,0,0.26458334,-6.3049604e-6,18.562493)" />
      </g>
      <g id="blade-left" transform="rotate(-120,475.28371,193.33741)">
        <path
           id="blade-left-outline"
           fill="#3e2c28"
           stroke="#3e2c28"
           stroke-width="10.5833"
           d="m 38.492488,-131.46343 c -23.82213,7.491 -37.0611293,32.875314 -29.5701318,56.697441 4.6447148,14.77066 14.6492538,23.868648 30.4945988,30.069781 11.992058,7.114176 10.233582,21.405881 -3.365242,31.342334 -6.484455,5.7205414 -4.818544,17.116767 2.385649,18.7516072 10.566383,2.39782 34.698033,-10.3382759 36.754259,-9.8903663 C 129.98978,-59.179707 100.05797,-150.82303 38.492488,-131.46343 Z" />
        <path
           id="blade-left-fill"
           fill="#ffd2c0"
           transform="matrix(0.26458334,0,0,0.26458334,-6.3049604e-6,18.562493)"
           d="m 207.59375,-577 c -19.54754,-0.0542 -40.31046,3.10905 -62.125,9.96875 -90.036395,28.31244 -140.0624309,124.24487 -111.75,214.28125 17.108264,54.406 53.478929,88.45312 110.75,111.84375 31.96542,9.98186 62.98772,12.72252 57.3125,14.46875 -4.5204,1.39089 -19.54241,2.34572 -35.3125,1.8125 24.65044,28.94183 13.13082,72.32513 -30.21875,104 -24.50818,21.620943 -18.1972,64.696077 9.03125,70.875 39.93593,9.062627 131.13469,-39.067887 138.90625,-37.375 C 471.88198,-274.43899 396.5533,-576.47586 207.59375,-577 Z" />
        <path
           id="blade-left-shadow"
           fill="#feb7a8"
           transform="matrix(0.26458334,0,0,0.26458334,-6.3049604e-6,18.562493)"
           d="m 201.09375,-227.625 c 1.45734,0.46901 1.80561,0.84346 0.6875,1.1875 -4.5204,1.39089 -19.54241,2.34572 -35.3125,1.8125 24.65044,28.94183 13.13082,72.32513 -30.21875,104 -24.50818,21.620943 -18.1972,64.696077 9.03125,70.875 7.29506,1.655463 16.29233,1.415333 26.1875,-0.09375 23.9425,-20.636732 49.87476,-59.08798 56.125,-92.125 8.21252,-43.40903 -8.1875,-85.65625 -8.1875,-85.65625 0,0 -6.4103,0.79225 -18.3125,0 z" />
        <path
           id="blade-left-highlight"
           fill="#ffe9d5"
           transform="matrix(0.26458334,0,0,0.26458334,-6.3049604e-6,18.562493)"
           d="m 207.59375,-577 c -19.54754,-0.0542 -40.31046,3.10905 -62.125,9.96875 -90.036395,28.31244 -140.062431,124.24487 -111.75,214.28125 3.170361,10.08207 6.996258,19.47321 11.5,28.21875 -32.021636,-104.7964 50.337455,-254.89792 211.71875,-219.84375 128.42467,27.89555 134.04727,190.31617 129.15625,269.125 30.43632,-153.15274 -46.16973,-301.38294 -178.5,-301.75 z" />
      </g>
      <g id="blade-right" transform="rotate(120,101.07777,472.91656)">
        <path
           id="blade-right-outline"
           fill="#3e2c28"
           stroke="#3e2c28"
           stroke-width="10.5833"
           d="m 38.492488,-131.46343 c -23.82213,7.491 -37.0611293,32.875314 -29.5701318,56.697441 4.6447148,14.77066 14.6492538,23.868648 30.4945988,30.069781 11.992058,7.114176 10.233582,21.405881 -3.365242,31.342334 -6.484455,5.7205414 -4.818544,17.116767 2.385649,18.7516072 10.566383,2.39782 34.698033,-10.3382759 36.754259,-9.8903663 C 129.98978,-59.179707 100.05797,-150.82303 38.492488,-131.46343 Z" />
        <path
           id="blade-right-fill"
           fill="#ffd2c0"
           d="m 207.59375,-577 c -19.54754,-0.0542 -40.31046,3.10905 -62.125,9.96875 -90.036395,28.31244 -140.0624309,124.24487 -111.75,214.28125 17.108264,54.406 53.478929,88.45312 110.75,111.84375 31.96542,9.98186 62.98772,12.72252 57.3125,14.46875 -4.5204,1.39089 -19.54241,2.34572 -35.3125,1.8125 24.65044,28.94183 13.13082,72.32513 -30.21875,104 -24.50818,21.620943 -18.1972,64.696077 9.03125,70.875 39.93593,9.062627 131.13469,-39.067887 138.90625,-37.375 C 471.88198,-274.43899 396.5533,-576.47586 207.59375,-577 Z"
           transform="matrix(0.26458334,0,0,0.26458334,-6.3049604e-6,18.562493)" />
        <path
           id="blade-right-shadow"
           fill="#feb7a8"
           d="m 201.09375,-227.625 c 1.45734,0.46901 1.80561,0.84346 0.6875,1.1875 -4.5204,1.39089 -19.54241,2.34572 -35.3125,1.8125 24.65044,28.94183 13.13082,72.32513 -30.21875,104 -24.50818,21.620943 -18.1972,64.696077 9.03125,70.875 7.29506,1.655463 16.29233,1.415333 26.1875,-0.09375 23.9425,-20.636732 49.87476,-59.08798 56.125,-92.125 8.21252,-43.40903 -8.1875,-85.65625 -8.1875,-85.65625 0,0 -6.4103,0.79225 -18.3125,0 z"
           transform="matrix(0.26458334,0,0,0.26458334,-6.3049604e-6,18.562493)" />
        <path
           id="blade-right-highlight"
           fill="#ffe9d5"
           d="m 207.59375,-577 c -19.54754,-0.0542 -40.31046,3.10905 -62.125,9.96875 -90.036395,28.31244 -140.062431,124.24487 -111.75,214.28125 3.170361,10.08207 6.996258,19.47321 11.5,28.21875 -32.021636,-104.7964 50.337455,-254.89792 211.71875,-219.84375 128.42467,27.89555 134.04727,190.31617 129.15625,269.125 30.43632,-153.15274 -46.16973,-301.38294 -178.5,-301.75 z"
           transform="matrix(0.26458334,0,0,0.26458334,-6.3049604e-6,18.562493)" />
      </g>
      <circle
         id="circle-center-outline"
         transform="rotate(102.54396)"
         stroke="#3e2c28"
         stroke-width="10.5833"
         cx="525.29303"
         cy="-660.54755"
         r="37.366135" />
      <circle
         id="circle-center-fill"
         transform="rotate(102.54396)"
         fill="#ffd3c1"
         cx="525.29303"
         cy="-660.54755"
         r="37.366135" />
    </g>
  </g>
  </g>
</svg>
