<?xml version="1.0" encoding="UTF-8"?>
<svg
   width="2048"
   height="2048"
   viewBox="0 0 100 100"
   xmlns="http://www.w3.org/2000/svg"
   xmlns:svg="http://www.w3.org/2000/svg">
  <mask id="cut-out-circle">
    <circle
       id="cut-out-circle-allow-all"
       transform="rotate(102.54396)"
       fill="white"
       cx="525.29303"
       cy="-660.54755"
       r="370.366135" />
    <circle
       id="cut-out-circle-outline"
       transform="rotate(102.54396)"
       stroke="black"
       fill="none"
       stroke-width="30"
       cx="525.29303"
       cy="-660.54755"
       r="37.366135" />
    <circle
       id="cut-out-circle-fill"
       transform="rotate(102.54396)"
       fill="white"
       cx="525.29303"
       cy="-660.54755"
       r="37.366135" />
  </mask>
  <g transform="translate(50,50) scale(1.04) translate(-50,-50)">
  <g transform="translate(-3820.9929,1171.0699)">
    <g transform="matrix(0.32502724,0,0,0.32502724,3698.5035,-1334.4463)">
      <g mask="url(#cut-out-circle)">
      <g id="blade-top" transform="translate(484.24529,648.14371)">
        <path
           id="blade-top-fill"
           fill="black"
           d="m 207.59375,-577 c -19.54754,-0.0542 -40.31046,3.10905 -62.125,9.96875 -90.036395,28.31244 -140.0624309,124.24487 -111.75,214.28125 17.108264,54.406 53.478929,88.45312 110.75,111.84375 31.96542,9.98186 62.98772,12.72252 57.3125,14.46875 -4.5204,1.39089 -19.54241,2.34572 -35.3125,1.8125 24.65044,28.94183 13.13082,72.32513 -30.21875,104 -24.50818,21.620943 -18.1972,64.696077 9.03125,70.875 39.93593,9.062627 131.13469,-39.067887 138.90625,-37.375 C 471.88198,-274.43899 396.5533,-576.47586 207.59375,-577 Z"
           transform="matrix(0.26458334,0,0,0.26458334,-6.3049604e-6,18.562493)" />
      </g>
      <g id="blade-left" transform="rotate(-120,475.28371,193.33741)">
        <path
           id="blade-left-fill"
           fill="black"
           transform="matrix(0.26458334,0,0,0.26458334,-6.3049604e-6,18.562493)"
           d="m 207.59375,-577 c -19.54754,-0.0542 -40.31046,3.10905 -62.125,9.96875 -90.036395,28.31244 -140.0624309,124.24487 -111.75,214.28125 17.108264,54.406 53.478929,88.45312 110.75,111.84375 31.96542,9.98186 62.98772,12.72252 57.3125,14.46875 -4.5204,1.39089 -19.54241,2.34572 -35.3125,1.8125 24.65044,28.94183 13.13082,72.32513 -30.21875,104 -24.50818,21.620943 -18.1972,64.696077 9.03125,70.875 39.93593,9.062627 131.13469,-39.067887 138.90625,-37.375 C 471.88198,-274.43899 396.5533,-576.47586 207.59375,-577 Z" />
      </g>
      <g id="blade-right" transform="rotate(120,101.07777,472.91656)">
        <path
           id="blade-right-fill"
           fill="black"
           d="m 207.59375,-577 c -19.54754,-0.0542 -40.31046,3.10905 -62.125,9.96875 -90.036395,28.31244 -140.0624309,124.24487 -111.75,214.28125 17.108264,54.406 53.478929,88.45312 110.75,111.84375 31.96542,9.98186 62.98772,12.72252 57.3125,14.46875 -4.5204,1.39089 -19.54241,2.34572 -35.3125,1.8125 24.65044,28.94183 13.13082,72.32513 -30.21875,104 -24.50818,21.620943 -18.1972,64.696077 9.03125,70.875 39.93593,9.062627 131.13469,-39.067887 138.90625,-37.375 C 471.88198,-274.43899 396.5533,-576.47586 207.59375,-577 Z"
           transform="matrix(0.26458334,0,0,0.26458334,-6.3049604e-6,18.562493)" />
      </g>
      <circle
         id="circle-center-fill"
         transform="rotate(102.54396)"
         fill="black"
         cx="525.29303"
         cy="-660.54755"
         r="37.366135" />
      </g>
    </g>
  </g>
  </g>
</svg>
